<svg width="186" height="48" viewBox="0 0 186 48" fill="none" xmlns="http://www.w3.org/2000/svg">
<path d="M11.9109 35.8661L6.41105 30.5705L4.60122 32.412C4.2292 31.4962 3.95773 30.5506 3.80691 29.5851C3.22374 25.8523 4.31969 21.9005 7.12493 18.954C7.1752 18.9043 7.22548 18.8545 7.27575 18.8047L14.3844 11.5681C15.3697 10.5627 15.3496 8.96009 14.3341 7.99454C13.3186 7.01903 11.6998 7.03894 10.7245 8.04431L3.61587 15.281C-1.30084 20.2779 -1.19024 28.3109 3.86723 33.1685L9.36711 38.4641L11.9109 35.8661Z" fill="#8CEBD1"/>
<path d="M25.3736 22.1557L18.2649 29.3924C15.9423 31.7515 12.4232 32.299 9.55765 30.995C8.78344 30.6466 8.05951 30.1588 7.42607 29.5417C4.4499 26.6749 4.32924 21.9666 7.13448 18.9604C4.32924 21.8969 3.22324 25.8487 3.81646 29.5815C4.09799 31.4031 4.7817 33.165 5.8676 34.7477C6.34017 35.4345 6.89317 36.0915 7.51656 36.6987L18.5163 47.28C19.5318 48.2555 21.1506 48.2356 22.1259 47.2302C23.1113 46.2248 23.0912 44.6222 22.0757 43.6567L14.7458 36.5892C17.3902 36.1811 19.924 34.9567 21.9349 32.9161L29.0435 25.6795C30.0289 24.6741 30.0087 23.0715 28.9932 22.106C27.9777 21.1305 26.3589 21.1603 25.3736 22.1557Z" fill="#71DAC1"/>
<path d="M11.0859 33.0665C10.4424 32.4494 9.93969 31.7426 9.55762 30.9861C12.4232 32.2901 15.9423 31.7526 18.2649 29.3835L25.3735 22.1468C26.3589 21.1415 27.9777 21.1216 28.9832 22.0971C29.9987 23.0726 30.0188 24.6752 29.0334 25.6706L21.9248 32.9073C21.8745 32.957 21.8243 33.0068 21.774 33.0566C18.8179 35.9234 14.0721 35.9433 11.0859 33.0665Z" fill="#60C3B0"/>
<path d="M28.0885 12.1451L33.5884 17.4407L35.3982 15.5992C35.7702 16.5149 36.0417 17.4606 36.1925 18.4261C36.7757 22.1589 35.6797 26.1107 32.8745 29.0571C32.8242 29.1069 32.774 29.1567 32.7237 29.2065L25.6151 36.4332C24.6297 37.4385 24.6498 39.0411 25.6653 40.0067C26.6809 40.9822 28.2997 40.9623 29.275 39.9569L36.3836 32.7203C41.3003 27.7233 41.1897 19.6903 36.1322 14.8327L30.6323 9.53711L28.0885 12.1451Z" fill="#F19E8A"/>
<path d="M11.0062 25.8929C9.99065 24.9174 9.97054 23.3148 10.9559 22.3194L18.0645 15.0827C20.0654 13.0421 22.6092 11.8178 25.2536 11.4097L28.9738 14.8737C29.6173 15.4909 30.0597 16.2573 30.4317 17.0138C27.5661 15.7098 24.047 16.2474 21.7244 18.6165L14.6158 25.8531C13.6405 26.8485 12.0217 26.8684 11.0062 25.8929Z" fill="#EF876D"/>
<path d="M28.9132 14.9313C29.5567 15.5484 30.0594 16.2552 30.4415 17.0117C27.5759 15.7077 24.0568 16.2452 21.7342 18.6143L14.6255 25.8509C13.6402 26.8563 12.0214 26.8762 11.0159 25.9007C10.0004 24.9252 9.9803 23.3226 10.9657 22.3272L18.0743 15.0905C18.1245 15.0407 18.1748 14.991 18.2251 14.9412C21.1812 12.0744 25.937 12.0645 28.9132 14.9313Z" fill="#EE7460"/>
<path d="M21.4835 0.717195L32.4732 11.3084C33.0966 11.9156 33.6496 12.5626 34.1221 13.2594C35.208 14.8321 35.8917 16.604 36.1733 18.4256C36.7564 22.1584 35.6605 26.1102 32.8552 29.0566C35.6504 26.0504 35.5398 21.3421 32.5637 18.4754C31.9202 17.8582 31.1962 17.3704 30.4321 17.0221C30.0601 16.2655 29.5473 15.5688 28.9038 14.9416L17.9241 4.3405C16.9086 3.36499 16.8885 1.76238 17.8739 0.766965C18.8592 -0.238402 20.478 -0.25831 21.4835 0.717195Z" fill="#EF876D"/>
<path d="M95.4521 33.508C95.4521 27.1511 95.4521 20.7942 95.4521 14.4373C95.539 14.4373 95.6084 14.4373 95.6779 14.4373C97.97 14.4373 100.262 14.4201 102.554 14.4373C104.395 14.4546 106.201 14.7647 107.833 15.6605C110.021 16.8664 111.41 18.7097 112.053 21.1043C112.296 22.0174 112.4 22.9304 112.4 23.8779C112.417 25.6524 112.122 27.3751 111.236 28.96C110.004 31.1651 108.111 32.5089 105.662 33.129C104.655 33.3874 103.613 33.508 102.572 33.508C100.245 33.508 97.9179 33.508 95.5911 33.508C95.5737 33.508 95.5216 33.508 95.4521 33.508ZM98.9077 30.4243C99.9495 30.4243 100.974 30.4243 101.981 30.4243C102.815 30.4071 103.648 30.3554 104.464 30.1832C106.426 29.7525 107.816 28.6499 108.493 26.7549C109.153 24.9116 109.135 23.051 108.475 21.2077C107.989 19.8467 107.086 18.8131 105.732 18.2101C104.777 17.7967 103.752 17.6072 102.71 17.59C101.512 17.5555 100.332 17.5727 99.1334 17.5727C99.064 17.5727 98.9945 17.5727 98.925 17.5727C98.9077 21.8451 98.9077 26.1175 98.9077 30.4243Z" fill="white"/>
<path d="M133.289 33.5079C132.074 33.5079 130.893 33.5079 129.712 33.5079C129.556 33.5079 129.556 33.4045 129.504 33.3184C129 32.2331 128.497 31.1477 127.993 30.0452C127.924 29.8729 127.837 29.8212 127.646 29.8212C125.041 29.8212 122.454 29.8212 119.849 29.8212C119.676 29.8212 119.589 29.8729 119.519 30.028C119.016 31.1133 118.512 32.2158 118.009 33.3012C117.939 33.4562 117.852 33.5079 117.679 33.5079C116.619 33.4907 115.56 33.5079 114.518 33.5079C114.449 33.5079 114.362 33.5079 114.258 33.5079C114.414 33.1634 114.57 32.836 114.727 32.5259C117.279 27.1682 119.832 21.8105 122.384 16.4528C122.68 15.8326 122.975 15.2124 123.27 14.5922C123.322 14.4717 123.392 14.42 123.513 14.4372C123.756 14.4544 124.051 14.3683 124.225 14.4889C124.399 14.5922 124.451 14.8851 124.555 15.0918C127.437 21.1731 130.32 27.2371 133.202 33.3184C133.22 33.3701 133.237 33.4218 133.289 33.5079ZM123.756 20.6907C122.801 22.758 121.881 24.8081 120.943 26.8409C122.836 26.8409 124.694 26.8409 126.587 26.8409C125.632 24.7908 124.711 22.758 123.756 20.6907Z" fill="white"/>
<path d="M91.4408 33.5089C90.6942 33.5089 89.9996 33.5089 89.2876 33.5089C88.8362 33.5089 88.3847 33.5089 87.9332 33.5089C87.7943 33.5089 87.7248 33.4744 87.6727 33.3366C87.1518 32.2168 86.6309 31.097 86.1273 29.9773C86.0752 29.8567 86.0058 29.8222 85.8842 29.8222C83.2448 29.8222 80.6054 29.8222 77.966 29.8222C77.8097 29.8222 77.7576 29.8911 77.7056 30.0117C77.202 31.1143 76.6811 32.234 76.1775 33.3366C76.1254 33.4744 76.0559 33.5089 75.8996 33.5089C74.7536 33.5089 73.6075 33.5089 72.4268 33.5089C72.4615 33.4227 72.4789 33.371 72.5136 33.3194C75.3614 27.3415 78.2091 21.3636 81.0569 15.3857C81.1784 15.11 81.3174 14.8344 81.4563 14.576C81.491 14.5071 81.5778 14.4554 81.6473 14.4554C81.8383 14.4382 82.0293 14.4554 82.2029 14.4382C82.3592 14.4209 82.4287 14.4898 82.4808 14.6104C83.0538 15.8336 83.6442 17.0567 84.2172 18.2799C86.492 23.0691 88.7667 27.8583 91.0241 32.6303C91.163 32.9231 91.3019 33.1988 91.4408 33.5089ZM84.7382 26.8591C83.8005 24.7918 82.8628 22.759 81.9078 20.6917C80.9527 22.7762 80.0324 24.809 79.0773 26.8591C80.9874 26.8591 82.8454 26.8591 84.7382 26.8591Z" fill="white"/>
<path d="M69.1275 17.2315C68.3114 17.7828 67.4953 18.3341 66.7139 18.8681C66.3666 18.5408 66.0714 18.1963 65.7241 17.9206C64.8906 17.3004 63.9008 17.1454 62.8937 17.2315C62.2686 17.2832 61.7129 17.5072 61.2267 17.9206C60.4627 18.5753 60.5321 19.9018 61.1051 20.4875C61.6087 21.0043 62.2165 21.2627 62.8416 21.5384C63.9182 21.9863 65.0122 22.3997 66.0714 22.8649C67.0091 23.2783 67.8773 23.7952 68.6413 24.4842C69.4748 25.2423 69.9263 26.1898 70.0826 27.3095C70.2041 28.257 70.1694 29.1873 69.8568 30.1004C69.2838 31.7887 68.0857 32.874 66.4013 33.4253C65.1511 33.8387 63.8661 33.9076 62.5638 33.8215C61.4351 33.7526 60.3411 33.4942 59.334 32.9773C57.8233 32.2021 56.7119 31.0479 56 29.4974C56.8682 28.9634 57.7364 28.4293 58.5873 27.8953C58.8478 28.2743 59.0735 28.6533 59.3513 28.9978C60.1154 29.9453 61.1225 30.4966 62.3207 30.6861C63.1889 30.8239 64.0397 30.8411 64.8906 30.6C66.2798 30.221 67.0438 28.6705 66.4881 27.3784C66.3145 26.9478 65.9846 26.6549 65.6199 26.3965C64.7343 25.7935 63.7445 25.4318 62.7548 25.0528C61.5219 24.5876 60.3064 24.088 59.2124 23.3128C58.1185 22.5203 57.4586 21.5039 57.285 20.1774C56.9377 17.5072 58.1706 15.5605 60.6537 14.5785C61.6434 14.1823 62.6679 14.0961 63.7272 14.1651C64.7864 14.234 65.7935 14.4579 66.7312 14.9575C67.6689 15.4227 68.7281 16.4391 69.1275 17.2315Z" fill="white"/>
<path d="M169.129 33.5087C168.365 33.5087 167.619 33.5087 166.872 33.5087C166.803 33.5087 166.733 33.4226 166.698 33.3537C166.264 32.3717 165.83 31.3897 165.396 30.3906C165.188 29.9082 164.962 29.4258 164.754 28.9435C164.702 28.8401 164.649 28.8056 164.545 28.8056C161.767 28.8056 158.989 28.8056 156.21 28.8056C156.089 28.8056 156.054 28.8573 156.002 28.9607C155.359 30.425 154.717 31.8893 154.074 33.3537C154.022 33.4915 153.953 33.5259 153.797 33.5259C153.102 33.5259 152.425 33.5259 151.713 33.5259C151.834 33.2331 151.956 32.9747 152.078 32.699C154.734 26.6694 157.374 20.6571 160.03 14.6275C160.1 14.4897 160.169 14.4552 160.326 14.438C160.621 14.4208 160.76 14.4897 160.899 14.7826C163.069 19.744 165.275 24.7227 167.462 29.6842C168.001 30.9074 168.539 32.1133 169.077 33.3364C169.095 33.3709 169.112 33.4226 169.129 33.5087ZM163.851 26.8245C162.705 24.137 161.559 21.484 160.395 18.7793C159.232 21.484 158.086 24.137 156.94 26.8245C159.249 26.8245 161.524 26.8245 163.851 26.8245Z" fill="white"/>
<path d="M139.523 33.4908C138.776 33.4908 138.064 33.4908 137.335 33.4908C137.335 27.1339 137.335 20.7942 137.335 14.4373C137.422 14.4373 137.491 14.4373 137.561 14.4373C139.575 14.4373 141.589 14.4201 143.604 14.4373C146.434 14.4546 148.674 16.4185 149.195 18.7614C149.646 20.8115 149.299 22.7065 147.771 24.2742C146.833 25.2389 145.705 25.8246 144.368 25.9797C144.003 26.0141 143.621 26.0314 143.256 26.0486C142.093 26.0486 140.929 26.0486 139.783 26.0486C139.697 26.0486 139.627 26.0486 139.523 26.0486C139.523 28.5466 139.523 31.0101 139.523 33.4908ZM139.523 24.0502C139.575 24.0502 139.61 24.0674 139.644 24.0674C140.929 24.0674 142.214 24.0674 143.499 24.0674C144.02 24.0674 144.524 23.9641 145.01 23.7574C147.215 22.7409 147.719 20.1913 146.746 18.3996C146.017 17.0559 144.819 16.4357 143.274 16.4529C142.093 16.4529 140.912 16.4529 139.731 16.4529C139.662 16.4529 139.592 16.4529 139.523 16.4702C139.523 18.9854 139.523 21.5006 139.523 24.0502Z" fill="white"/>
<path d="M178.854 33.4911C178.125 33.4911 177.413 33.4911 176.666 33.4911C176.666 33.405 176.666 33.3188 176.666 33.2327C176.666 30.7692 176.666 28.3229 176.666 25.8594C176.666 25.7388 176.631 25.6182 176.579 25.5148C174.409 21.9143 172.256 18.3138 170.085 14.696C170.033 14.6271 169.998 14.541 169.929 14.4376C169.998 14.4204 170.05 14.4204 170.102 14.4204C170.78 14.4204 171.457 14.4204 172.151 14.4204C172.29 14.4204 172.342 14.4721 172.412 14.5755C173.957 17.1423 175.485 19.7092 177.031 22.2761C177.274 22.6895 177.534 23.103 177.795 23.5337C177.968 23.2408 178.125 22.9824 178.281 22.724C179.896 20.0021 181.511 17.2974 183.126 14.5755C183.195 14.4721 183.265 14.4204 183.404 14.4204C184.063 14.4376 184.706 14.4204 185.366 14.4204C185.418 14.4204 185.47 14.4204 185.557 14.4204C185.47 14.5582 185.418 14.6788 185.348 14.7822C183.23 18.3138 181.129 21.8626 179.01 25.3942C178.906 25.5665 178.871 25.7216 178.871 25.9111C178.871 28.3401 178.871 30.7692 178.871 33.1982C178.854 33.3188 178.854 33.405 178.854 33.4911Z" fill="white"/>
</svg>
